<?xml version="1.0" encoding="UTF-8"?>
<svg id="Layer_1" data-name="Layer 1" xmlns="http://www.w3.org/2000/svg" viewBox="0 0 841.89 595.28">
  <defs>
    <style>
      .cls-1 {
        fill: #9108db;
      }

      .cls-2 {
        font-family: Raleway, Raleway;
        font-size: 20.16px;
      }

      .cls-2, .cls-3 {
        fill: #2bb673;
      }

      .cls-4 {
        letter-spacing: 0em;
      }

      .cls-5 {
        letter-spacing: 0em;
      }

      .cls-6 {
        font-size: 61.75px;
      }

      .cls-6, .cls-7 {
        font-family: MonumentExtended-Regular, 'Monument Extended';
      }

      .cls-7 {
        font-size: 58.33px;
      }

      .cls-8 {
        letter-spacing: -.09em;
      }

      .cls-9 {
        letter-spacing: -.09em;
      }

      .cls-10 {
        letter-spacing: -.02em;
      }

      .cls-11 {
        letter-spacing: -.02em;
      }

      .cls-12 {
        letter-spacing: -.02em;
      }

      .cls-13 {
        letter-spacing: -.02em;
      }

      .cls-14 {
        letter-spacing: -.01em;
      }

      .cls-15 {
        letter-spacing: -.02em;
      }

      .cls-16 {
        letter-spacing: -.02em;
      }

      .cls-17 {
        letter-spacing: -.04em;
      }

      .cls-18 {
        letter-spacing: -.03em;
      }

      .cls-19 {
        letter-spacing: 0em;
      }

      .cls-20 {
        letter-spacing: 0em;
      }

      .cls-21 {
        letter-spacing: -.01em;
      }

      .cls-22 {
        letter-spacing: -.01em;
      }

      .cls-23 {
        letter-spacing: -.01em;
      }

      .cls-24 {
        letter-spacing: 0em;
      }

      .cls-25 {
        letter-spacing: 0em;
      }
    </style>
  </defs>
  <path class="cls-1" d="M254.55,312.24c-3.75,3.75-8.91,6.06-14.62,6.06s-10.87-2.32-14.62-6.06c-3.73-3.75-6.05-8.91-6.05-14.62s2.32-10.87,6.05-14.62c3.75-3.73,8.91-6.05,14.62-6.05s10.87,2.32,14.62,6.05c1.62,1.62,2.97,3.54,4,5.63h69.6c-.5-4.95-1.4-9.79-2.69-14.47-4.13-15.07-12.11-28.51-22.83-39.23-16.05-16.05-38.22-25.97-62.71-25.97-6.21,0-15.61.64-26.3,3.96-17.83,5.53-29.92,15.63-36.39,22.01-5.13,5.13-11.45,12.7-16.61,22.99-2.6,5.18-4.42,10.08-5.71,14.41,0,0-1.85,6.53-2.83,13.1-.19,1.29-.98,6.93-.8,14.41.06,2.67.84,10.48,1.29,13.1.4,2.28,1.96,10.55,5.98,19.84,6.27,14.49,15.61,24.63,21.43,30.15,6.37,5.79,17.56,14.39,33.64,19.39,5.23,1.62,14.5,3.97,26.3,3.97,24.49,0,46.66-9.92,62.71-25.97,10.72-10.72,18.72-24.18,22.83-39.25,1.29-4.68,2.19-9.52,2.69-14.47h-69.6c-1.03,2.11-2.38,4-4,5.63ZM297.24,321.04h13.2s-.02.03-.02.05c-3.68,11.08-9.9,21-17.98,29.05-13.44,13.44-32,21.75-52.51,21.75s-39.07-8.31-52.51-21.75c-13.44-13.44-21.74-32-21.74-52.51s8.3-39.07,21.74-52.51c13.44-13.44,32.01-21.74,52.51-21.74s39.07,8.3,52.51,21.74c8.07,8.07,14.28,17.99,17.98,29.05,0,.02.02.05.02.06h-13.2s-.02-.05-.03-.06c-3.15-7.65-7.77-14.53-13.52-20.29-11.19-11.19-26.66-18.12-43.75-18.12s-32.54,6.93-43.73,18.12c-11.21,11.21-18.14,26.67-18.14,43.75s6.93,32.56,18.14,43.75c11.19,11.19,26.66,18.12,43.73,18.12s32.56-6.93,43.75-18.12c5.76-5.76,10.39-12.64,13.54-20.29,0-.02.02-.03.02-.05ZM266.07,321.04h15.18s-.02.03-.03.05c-2.11,3.71-4.71,7.11-7.72,10.1-8.57,8.6-20.45,13.91-33.56,13.91s-24.97-5.31-33.56-13.91c-8.59-8.59-13.91-20.45-13.91-33.56s5.32-24.97,13.91-33.56c8.59-8.59,20.45-13.91,33.56-13.91s24.99,5.32,33.56,13.91c3.01,2.99,5.6,6.4,7.72,10.1,0,.02.02.05.03.06h-15.18c-.43-.48-.87-.95-1.32-1.4-6.35-6.35-15.11-10.27-24.81-10.27s-18.46,3.92-24.79,10.27c-6.35,6.33-10.27,15.11-10.27,24.79s3.92,18.46,10.27,24.81c6.33,6.33,15.11,10.27,24.79,10.27s18.46-3.94,24.81-10.27c.45-.47.88-.93,1.32-1.4Z"/>
  <path class="cls-3" d="M254.55,312.24c-3.75,3.75-8.91,6.06-14.62,6.06s-10.87-2.32-14.62-6.06c-3.73-3.75-6.05-8.91-6.05-14.62s2.32-10.87,6.05-14.62c3.75-3.73,8.91-6.05,14.62-6.05s10.87,2.32,14.62,6.05c1.62,1.62,2.97,3.54,4,5.63h69.6c-.5-4.95-1.4-9.79-2.69-14.47h-59.38c-.42-.48-.87-.93-1.32-1.4-6.62-6.62-15.45-10.27-24.84-10.27s-18.22,3.65-24.87,10.31c-6.61,6.64-10.26,15.47-10.26,24.82s3.65,18.18,10.29,24.84c6.62,6.64,15.45,10.29,24.84,10.29s18.22-3.65,24.84-10.29h.02c.45-.45.88-.92,1.3-1.38h59.38c1.29-4.68,2.19-9.52,2.69-14.47h-69.6c-1.03,2.11-2.38,4-4,5.63Z"/>
  <text class="cls-6" transform="translate(350.32 287.96)"><tspan class="cls-21" x="0" y="0">C</tspan><tspan class="cls-23" x="57.55" y="0">O</tspan><tspan class="cls-16" x="115.34" y="0">N</tspan><tspan class="cls-13" x="175.36" y="0">S</tspan><tspan class="cls-21" x="233.41" y="0">O</tspan><tspan x="291.14" y="0">L</tspan></text>
  <text class="cls-7" transform="translate(355.8 335.93)"><tspan class="cls-15" x="0" y="0">F</tspan><tspan class="cls-20" x="46.61" y="0">I</tspan><tspan class="cls-18" x="61.83" y="0">NA</tspan><tspan class="cls-14" x="175.94" y="0">N</tspan><tspan class="cls-25" x="232.69" y="0">C</tspan><tspan x="287.12" y="0">E</tspan></text>
  <text class="cls-2" transform="translate(358.31 361.4)"><tspan class="cls-8" x="0" y="0">Y</tspan><tspan x="11.05" y="0">ou</tspan><tspan class="cls-10" x="35.01" y="0">r</tspan><tspan x="41.64" y="0"> </tspan><tspan class="cls-24" x="46.8" y="0">P</tspan><tspan class="cls-19" x="59.14" y="0">a</tspan><tspan class="cls-4" x="70.06" y="0">th,</tspan><tspan class="cls-17" x="92.56" y="0"> </tspan><tspan class="cls-9" x="96.99" y="0">Y</tspan><tspan class="cls-4" x="108.04" y="0">ou</tspan><tspan class="cls-10" x="132" y="0">r</tspan><tspan x="138.63" y="0"> </tspan><tspan class="cls-22" x="143.79" y="0">P</tspan><tspan class="cls-12" x="156.07" y="0">o</tspan><tspan class="cls-5" x="167.66" y="0">wer,</tspan><tspan class="cls-17" x="207.13" y="0"> </tspan><tspan class="cls-9" x="211.56" y="0">Y</tspan><tspan class="cls-4" x="222.61" y="0">ou</tspan><tspan class="cls-11" x="246.57" y="0">r</tspan><tspan x="253.22" y="0" xml:space="preserve"> Finance</tspan></text>
</svg>